<svg width="112" height="28" viewBox="0 0 112 28" fill="none" xmlns="http://www.w3.org/2000/svg">
<path fill-rule="evenodd" clip-rule="evenodd" d="M11.0801 7.20016V28.0002H12.5201V7.20016H23.0401V0.160156H0.560059V7.20016H11.0801ZM31.5294 28.0002H52.9294L45.8494 18.1202C47.7961 17.5868 49.4094 16.5068 50.6894 14.8802C51.9694 13.2268 52.6094 11.3602 52.6094 9.28016C52.6094 7.60016 52.2094 6.06682 51.4094 4.68016C50.6094 3.29349 49.4894 2.20016 48.0494 1.40016C46.5828 0.573491 44.6894 0.160156 42.3694 0.160156H31.5294V28.0002ZM61.0188 28.0002V0.160156H71.3788C73.4055 0.160156 75.2721 0.666824 76.9788 1.68016C78.7121 2.69349 80.0855 4.06682 81.0988 5.80016C82.1122 7.50682 82.6188 9.37349 82.6188 11.4002V16.7602C82.6188 18.7868 82.1122 20.6668 81.0988 22.4002C80.0855 24.1068 78.7121 25.4668 76.9788 26.4802C75.2721 27.4935 73.4055 28.0002 71.3788 28.0002H61.0188ZM106.788 0.960155C105.748 0.426823 104.348 0.160156 102.588 0.160156H90.9082V28.0002H103.228C104.428 28.0002 105.388 27.9202 106.108 27.7602C106.828 27.6002 107.482 27.3602 108.068 27.0402C109.242 26.3735 110.175 25.4668 110.868 24.3202C111.588 23.1468 111.948 21.8668 111.948 20.4802C111.948 18.9068 111.455 17.4935 110.468 16.2402C109.482 14.9868 108.268 14.1068 106.828 13.6002C108.028 12.9602 108.975 12.0935 109.668 11.0002C110.362 9.88016 110.708 8.66682 110.708 7.36016C110.708 5.97349 110.362 4.72016 109.668 3.60016C109.002 2.48016 108.042 1.60016 106.788 0.960155Z" fill="black"/>
</svg>
